<?xml version="1.0" encoding="utf-8"?>
<!-- Generator: Adobe Illustrator 27.5.0, SVG Export Plug-In . SVG Version: 6.00 Build 0)  -->
<svg version="1.1" xmlns="http://www.w3.org/2000/svg" xmlns:xlink="http://www.w3.org/1999/xlink" x="0px" y="0px"
	 viewBox="0 0 500 500" style="enable-background:new 0 0 500 500;" xml:space="preserve">
<g id="Shadows">
	<ellipse id="Shadow_6_" style="fill:#EBEBEB;" cx="416.382" cy="444.005" rx="48.765" ry="28.154"/>
	<ellipse id="Shadow_11_" style="fill:#EBEBEB;" cx="104.783" cy="267.407" rx="46.374" ry="26.774"/>
	<ellipse id="Shadow_2_" style="fill:#EBEBEB;" cx="177.952" cy="310.022" rx="46.374" ry="26.774"/>
	<ellipse id="Shadow_4_" style="fill:#EBEBEB;" cx="252.053" cy="353.331" rx="46.374" ry="26.774"/>
	<ellipse id="Shadow_5_" style="fill:#EBEBEB;" cx="327.386" cy="396.192" rx="46.374" ry="26.774"/>
</g>
<g id="Clouds">
	<g id="Clouds_7_">
		<path id="XMLID_968_" style="fill:#EBEBEB;" d="M375.226,57.588l8.938,5.16c-0.044-0.399-0.075-0.795-0.075-1.183v-2.589
			c0-4.608,3.235-6.476,7.226-4.172c1.616,0.933,3.103,2.411,4.306,4.141c0.654-5.794,5.2-7.953,10.721-4.765
			c5.97,3.447,10.81,11.83,10.81,18.723v3.874c0,1.786-0.33,3.289-0.915,4.488l7.424,4.286c2.214,1.278,4.008,4.386,4.008,6.942
			c0,2.556-1.794,3.592-4.008,2.314l-48.435-27.964c-2.214-1.278-4.008-4.386-4.008-6.942
			C371.218,57.346,373.013,56.31,375.226,57.588z"/>
		<path id="XMLID_867_" style="fill:#EBEBEB;" d="M336.976,83.631l6.745,3.895c-0.033-0.301-0.057-0.6-0.057-0.893v-1.954
			c0-3.478,2.441-4.887,5.453-3.148c1.22,0.704,2.342,1.82,3.25,3.125c0.493-4.373,3.924-6.002,8.091-3.596
			c4.506,2.601,8.158,8.928,8.158,14.131v2.924c0,1.348-0.249,2.482-0.691,3.387l5.603,3.235c1.671,0.965,3.025,3.31,3.025,5.239
			c0,1.929-1.354,2.711-3.025,1.746l-36.554-21.104c-1.671-0.965-3.025-3.31-3.025-5.239
			C333.951,83.448,335.306,82.666,336.976,83.631z"/>
	</g>
</g>
<g id="Plants">
	<g id="Plants_16_">
		<g id="XMLID_3669_">
			<g id="XMLID_3720_">
				<path id="XMLID_3721_" style="fill:#37474F;" d="M434.053,430.623c2.42-2.865,8.938-5.455,17.102-6.021
					c8.165-0.566,16.422-1.544,15.265-6.4c-1.248-5.239-8.57-6.544-16.195-4.634c-8.332,2.086-15.301,9.229-16.138,14.23
					L434.053,430.623z"/>
			</g>
			<g id="XMLID_3717_">
				<path id="XMLID_3719_" style="fill:#FFFFFF;" d="M434.158,428.876c0.212,0.031,0.432-0.058,0.56-0.247
					c7.867-11.657,22.195-11.649,26.524-10.327c0.3,0.094,0.626-0.078,0.718-0.382c0.093-0.303-0.078-0.626-0.382-0.719
					c-4.542-1.392-19.584-1.412-27.815,10.784c-0.178,0.264-0.108,0.621,0.155,0.799
					C433.993,428.834,434.075,428.864,434.158,428.876z"/>
			</g>
		</g>
		<g id="XMLID_3664_">
			<g id="XMLID_3667_">
				<path id="XMLID_3668_" style="fill:#455A64;" d="M434.053,430.623c0,0,5.949-14.441,16.694-21.113
					c3.193-1.982,6.661-4.537,9.082-6.299c5.196-3.782,3.993-8.886-2.33-9.708c-9.395-1.223-17.398,5.682-21.86,15.586
					C431.176,418.994,434.053,430.623,434.053,430.623z"/>
			</g>
			<g id="XMLID_3665_">
				<path id="XMLID_3666_" style="fill:#FFFFFF;" d="M434.145,423.752c0.284,0.041,0.557-0.14,0.626-0.425
					c4.251-17.69,19.233-24.729,23.092-25.144c0.309-0.033,0.532-0.31,0.499-0.619c-0.033-0.309-0.31-0.534-0.619-0.499
					c-4.687,0.504-19.712,7.885-24.065,26c-0.072,0.301,0.113,0.605,0.416,0.678C434.111,423.746,434.128,423.75,434.145,423.752z"
					/>
			</g>
		</g>
	</g>
</g>
<g id="Character_5">
	<g id="XMLID_2766_">
		<g id="XMLID_2800_">
			<g id="XMLID_3755_">
				<path id="XMLID_3756_" style="fill:#FFA8A7;" d="M437.127,257.994c4.795-1.133,7.902,2.905,10.989,10.434
					c3.087,7.529,8.591,25.87,9.874,30.901c0.575,2.254-13.693,22.424-13.082,22.125c0.188-0.092-5.571-9.727-5.571-9.727
					l7.002-13.398l-4.986-12.184L437.127,257.994z"/>
			</g>
			<g id="XMLID_3228_">
				<g id="XMLID_3749_">
					<path id="XMLID_3754_" style="fill:#263238;" d="M443.938,427.95c0.65,0.246,0.814,1.484,0.912,3.944
						c0.074,1.862,0.473,5.112-1.708,5.761c-2.181,0.649-5.376,0.318-6.774-1.438c-1.744-2.19-2.924-4.119-5.413-6.792
						c-2.16-2.319-4.496-4.483-5.368-7.734c-0.788-2.938-0.132-4.213,1.873-5.068c2.757-1.175,7.087,2.664,9.248,3.268
						C438.568,420.414,443.288,427.704,443.938,427.95z"/>
				</g>
				<g id="XMLID_3480_">
					<path id="XMLID_3488_" style="fill:#FFA8A7;" d="M443.938,423.969v4.724c0,0-3.142,2.414-7.635,0.206
						c-0.132-0.291-0.515-4.931-0.515-4.931H443.938z"/>
				</g>
				<g id="XMLID_3455_">
					<path id="XMLID_3458_" style="fill:#263238;" d="M421.456,444.005c0,0,0.867,2.628,1.334,4.925
						c0.371,1.827,0.903,4.88,0.264,6.253c-0.64,1.374-3.135,2.261-7.003,2.231c-2.505-0.019-6.41,1.682-9.083,3.174
						c-2.761,1.541-5.757,1.546-8.677,1.203c-3.442-0.404-7.007-2.4-7.563-3.825c-0.556-1.425,0.159-2.11,8.269-5.566
						c0.074-0.032,8.553-3.861,12.477-8.192L421.456,444.005z"/>
				</g>
				<g id="XMLID_3448_">
					<path id="XMLID_3452_" style="fill:#FFA8A7;" d="M421.456,440.739c0,0-0.011,2.242,0,3.523
						c0.011,1.281-1.502,3.191-5.419,3.051c-2.751-0.098-4.672-0.838-4.563-3.104v-3.266L421.456,440.739z"/>
				</g>
				<g id="XMLID_3285_">
					<path id="XMLID_3288_" style="fill:#27DEBF;" d="M449.033,389.09c-0.255-9.965-2.305-14.338-2.305-14.338
						s0.763-12.308,2.419-27.378c2.521-22.942,1.361-27.389-3.165-37.71c0,0-38.618-3.914-39.796,12.135
						c-1.467,19.987-1.641,55.43-1.111,62.49c0.53,7.061,0.523,5.747,2.238,20.039c1.356,11.304,4.161,36.615,4.161,36.615
						c5.125,2.771,9.982-0.204,9.982-0.204s3.157-32.136,2.826-40.283c-0.405-9.948-0.969-12.48-0.969-12.48
						s4.516-29.39,5.214-34.575c0,0,0.629,9.279,1.159,16.34c0.53,7.061,0.486,9.934,1.974,24.539
						c1.167,11.455,3.993,30.975,3.993,30.975c4.566,1.928,8.422-0.62,8.422-0.62S449.239,397.153,449.033,389.09z"/>
				</g>
			</g>
			<g id="XMLID_2817_">
				<g id="XMLID_2926_">
					<polygon id="XMLID_2967_" style="fill:#FFA8A7;" points="417.348,252.799 419.162,267.721 432.282,266.536 430.783,249.973 
											"/>
				</g>
			</g>
			<g id="XMLID_2814_">
				<g id="XMLID_2815_">
					<path id="XMLID_2816_" style="fill:#37474F;" d="M445.077,265.213c-1.442-3.926-4.746-8.037-9.79-7.101
						c-1.314,0.244-2.469,0.436-3.706,0.685c-0.114,3.438-6.591,5.217-13.049,3.132c-1.941,0.556-3.719,1.123-5.332,1.699
						c-4.617,1.649-6.474,9.32-6.575,22.152c-0.102,12.832-1.467,44.838-1.467,44.838l5.399,1.697l2.522-9.362l1.016,11.214
						c5.844,1.472,11.979,1.366,18.644-0.091c13.876-3.032,18.195-10.518,18.195-10.518s-2.86-12.886-11.05-25.528
						C446.84,279.531,447.217,271.039,445.077,265.213z"/>
				</g>
			</g>
			<g id="XMLID_2801_">
				<g id="XMLID_2812_">
					<path id="XMLID_2813_" style="fill:#263238;" d="M407.599,233.843c0,0-2.749-5.223,0.988-11.093
						c4.405-6.915,12.895-8.095,22.957-5.397c4.987,1.337,11.961,6.636,12.586,16.203c0.482,7.378-20.096,12.821-19.626,17.875
						L407.599,233.843z"/>
				</g>
				<g id="XMLID_2810_">
					<path id="XMLID_2811_" style="fill:#F28F8F;" d="M407.156,236.645c0,0-2.792,4.478-2.399,4.933
						c0.392,0.455,2.255,0.901,2.255,0.901L407.156,236.645z"/>
				</g>
				<g id="XMLID_2808_">
					<path id="XMLID_2809_" style="fill:#FFA8A7;" d="M415.673,222.465c-2.79,1.538-7.606,4.371-8.583,14.826
						c-1.002,10.733,1.48,14.386,2.976,15.749c1.01,0.92,6.099,1.126,8.727,0.232c3.288-1.119,10.374-4.862,13.594-10.474
						c3.786-6.603,4.371-15.283-0.293-18.554C425.53,219.639,418.035,221.163,415.673,222.465z"/>
				</g>
				<path id="XMLID_2807_" style="fill:#263238;" d="M415.66,223.728c-0.699,1.982-2.656,6.653-2.963,12.323
					c0,0-2.557,0-3.773-0.616c0,0-0.057-4.496,1.151-7.055c0,0-1.679,2.694-2.199,6.677c0,0-2.264-0.168-3.573-1.334
					c-0.973-4.812,2.036-14.734,10.546-16.31L415.66,223.728z"/>
				<g id="XMLID_2805_">
					<path id="XMLID_2806_" style="fill:#263238;" d="M414.85,222.934c0,0-2.202,9.826,0.918,15.914c0,0,1.627-3.855,4.93-2.851
						c3.325,1.011,3.142,5.413,0.609,7.729c-2.534,2.316-5.081,1.223-5.081,1.223s1.511,4.141,4.908,7.411
						c0,0,9.779,4.36,18.247-5.198c7.684-8.672,6.255-23.799-5.513-27.367C422.102,216.228,414.85,222.934,414.85,222.934z"/>
				</g>
				<path id="XMLID_3757_" style="fill:#263238;" d="M447.406,245.079c2.321,2.458,1.881,6.642-0.982,9.345
					c-2.863,2.703-7.065,2.901-9.386,0.443s-1.881-6.642,0.982-9.345S445.085,242.62,447.406,245.079z"/>
				<path id="XMLID_2804_" style="fill:#263238;" d="M443.39,240.784c-1.212,0.39-1.88,1.688-1.49,2.901l4.391-1.411
					C445.901,241.061,444.603,240.394,443.39,240.784z"/>
			</g>
		</g>
		<g id="XMLID_2798_">
			<path id="XMLID_2799_" style="fill:#FFA8A7;" d="M379.997,287.265c-1.904-2.176-2.22-6.98-4.758-10.287
				c-2.479-3.229-2.075-6.639-3.667-5.155c-1.702,1.586-0.402,6.903-0.402,6.903s-2.954,5.481-3.205,8.286
				c-0.25,2.805,7.173,9.851,7.173,9.851L379.997,287.265z"/>
		</g>
		<g id="XMLID_2796_">
			<path id="XMLID_2797_" style="fill:#FFA8A7;" d="M371.572,278.35c0,0-3.006,4.203-16.547-1.286
				c-3.74-1.516-1.216,6.523,3.371,9.854c4.245,3.083,9.558,4.037,13.807,6.914C372.212,293.423,371.572,278.35,371.572,278.35z"/>
		</g>
		<g id="XMLID_2794_">
			<path id="XMLID_2795_" style="fill:#FFA8A7;" d="M414.348,263.233c-3.857,1.342-7.233,2.895-10.833,9.66
				c-4.625,8.692-13.037,25.72-13.037,25.72l-10.482-11.348c0,0-1.526-2.15-4.363,2.538c-2.837,4.688-1.584,5.985-1.584,5.985
				s12.196,16.335,14.434,18.414c2.239,2.079,5.916,0.462,8.315-2.807c2.398-3.269,14.809-25.745,14.809-25.745
				S419.799,271.451,414.348,263.233z"/>
		</g>
		<path id="XMLID_2793_" style="opacity:0.2;" d="M428.527,353.401l0.731-7.806c0,0,5.669-0.548,11.781-4.457
			c0,0-2.507,4.02-9.393,5.85l-1.554,7.604l-0.406,15.148L428.527,353.401z"/>
		<path id="XMLID_2767_" style="fill:#263238;" d="M406.453,294.638c0,0,4.849-8.485,5.156-8.988l-5.547,21.531L406.453,294.638z"/>
	</g>
</g>
<g id="Character_4">
	<g id="XMLID_3780_">
		<g id="XMLID_3834_">
			<g id="XMLID_3841_">
				<g id="Character_boy_9_">
					<g id="XMLID_3892_">
						<g id="XMLID_3894_">
							<path id="XMLID_3895_" style="fill:#B16668;" d="M348.898,243.712c1.42,1.485,4.793,2.636,26.615,4.226
								c3.186,0.232,6.349-0.026,9.367-1.228c2.917-1.162,5.504-3.18,7.26-5.791c0.397-0.589,0.758-1.218,0.919-1.91
								c0.161-0.692,0.102-1.46-0.293-2.051c-0.39-0.584-1.058-0.93-1.735-1.117c-1.432-0.396-2.75-0.079-4.095,0.439
								c-2.02,0.778-3.554,1.049-3.404,0.642c0.15-0.407,1.368-0.782,2.621-2.194c1.197-1.349,1.567-3.385,0.758-3.997
								c-0.81-0.612-0.668-0.48-2.114,0.715c-1.447,1.195-3.099,1.808-5.001,3.654c-1.676,1.625-2.395,2.267-4.417,3.068
								c-2.192,0.869-4.256,0.611-10.338-0.361c-5.253-0.84-7.266-1.138-9.788-2.541c-2.712-4.121-9.248-21.523-12.089-26.296
								c-3.004-5.047-9.104-5.203-9.104-5.203s-0.161,9.058,3.081,18.283C339.24,228.029,347.488,242.237,348.898,243.712z"/>
						</g>
						<path id="XMLID_3893_" style="fill:#455A64;" d="M332.406,203.254c0,0,4.009-0.795,7.315,1.288s5.463,5.933,7.562,10.75
							c2.555,5.862,5.638,13.694,5.638,13.694s-3.836,4.275-11.004,4.983l-9.851-16.363L332.406,203.254z"/>
					</g>
					<g id="Character_boy_10_">
						<g id="XMLID_3842_">
							
								<rect id="XMLID_3891_" x="309.122" y="376.478" transform="matrix(-1 -1.224647e-16 1.224647e-16 -1 626.7435 767.5053)" style="fill:#B16668;" width="8.5" height="14.55"/>
							<polygon id="XMLID_3890_" style="fill:#B16668;" points="332.642,380.141 341.137,380.434 341.562,365.035 332.642,364.743 
															"/>
							<path id="XMLID_3889_" style="fill:#37474F;" d="M305.502,267.829c0,8.116,1.435,55.326,1.435,55.326
								c-0.198,2.336-2.446,6.488-2.621,14.9c-0.253,12.199,4.443,45.696,4.443,45.696s4.126,2.411,9.463,0.187
								c0,0,3.855-45.407,5.378-57.482c1.329-10.539,3.584-39.168,3.584-39.168l4.002,34.404c0,0-1.567,6.286-1.053,13.508
								c0.397,5.586,1.971,40.171,1.971,40.171s4.001,2.715,9.814,0.751c0,0,5.995-49.305,6.093-54.429
								c0.112-5.843-2.221-65.484-2.221-65.484L305.502,267.829z"/>
							<path id="XMLID_3888_" style="fill:#F0F0F0;" d="M311.086,208.121c-1.869,0.836-3.346,2.358-4.096,4.263
								c-0.668,1.697-1.245,4.102-1.245,7.346v16.653l-0.243,31.446c12.199,6.43,27.709,6.86,40.724-2.645
								c0,0-0.726-40.476-0.726-47.097c0-0.299-0.007-0.603-0.023-0.909c-0.473-9.457-9.784-15.946-18.954-13.588l-7.703,1.981
								L311.086,208.121L311.086,208.121z"/>
							<g id="XMLID_3846_">
								<g id="XMLID_3867_">
									
										<ellipse id="XMLID_3887_" transform="matrix(0.7071 -0.7071 0.7071 0.7071 -27.7538 287.2876)" style="fill:#263238;" cx="332.91" cy="177.146" rx="11.681" ry="11.681"/>
									<path id="XMLID_3886_" style="fill:#263238;" d="M312.718,185.451c0,0,1.893,8.893,2.652,10.354
										c0.759,1.461,2.328,1.876,2.328,1.876l-0.132-6.256L312.718,185.451z"/>
									<path id="XMLID_3885_" style="fill:#263238;" d="M315.094,172.711c0,0-2.039-0.349-3.628,1.276
										c-1.558,1.593-0.688,6.58,1.252,11.464l3.565,0.409L315.094,172.711z"/>
									<path id="XMLID_3884_" style="fill:#B16668;" d="M317.353,185.863c-0.715,0.427-1.735-0.946-2.617-1.869
										c-0.882-0.922-3.76-2.183-5.196,0.842c-1.463,3.083,1.268,7.157,3.533,7.868c3.905,1.226,4.491-1.279,4.491-1.279
										l0.288,14.517l0,0c4.855,6.225,18.329,5.699,12.715-0.803l-0.011-4.287c0,0,3.538,0.537,5.264,0.27
										c2.872-0.444,4.679-2.71,5.55-5.818c1.399-4.993,1.931-9.025,0.743-18.844c-1.301-10.763-13.82-10.875-20.58-6.62
										C314.775,174.094,317.353,185.863,317.353,185.863z"/>
									<path id="XMLID_3883_" style="fill:#263238;" d="M317.353,187.066c-0.36,0.007-1.727-2.262-2.617-3.072
										c-1.233-1.122,0.357-11.283,0.357-11.283s-1.185-2.526,1.19-5.139c1.689-1.859,3.526-3.033,8.399-3.294
										c2.852-0.152,7.414,0.295,9.976,0.468c4.81,0.325,6.586-0.86,9.348-1.634c2.114-0.593,2.354,7.04-2.986,9.567
										c0,0-1.738,1.121-6.312,1.678c-4.575,0.557-11.7-0.107-12.674-0.24c-1.326-0.181-1.61,1.104-2.325,4.616
										C319.082,181.817,318.561,187.043,317.353,187.066z"/>
									<path id="XMLID_3882_" style="fill:#263238;" d="M315.101,173.501l-4.323-2.321c0.613-1.239,2.079-1.723,3.272-1.082
										S315.714,172.263,315.101,173.501z"/>
									<path id="XMLID_3881_" style="fill:#9A4A4D;" d="M330.558,200.852c0,0-6.411-1.291-8.652-2.483
										c-1.5-0.797-2.736-2.179-3.098-3.065c0,0,0.42,1.902,1.76,3.615c1.639,2.095,9.99,3.639,9.99,3.639L330.558,200.852z"/>
								</g>
								<g id="XMLID_3847_">
									<path id="XMLID_3866_" style="fill:#263238;" d="M330.245,184.26c0,0.737-0.575,1.333-1.285,1.331
										c-0.71-0.002-1.285-0.601-1.285-1.339c0-0.737,0.575-1.333,1.285-1.331C329.669,182.924,330.245,183.523,330.245,184.26z"
										/>
									<path id="XMLID_3865_" style="fill:#263238;" d="M328.882,179.41l-2.748,1.517c-0.405-0.79-0.118-1.769,0.64-2.188
										C327.533,178.32,328.477,178.62,328.882,179.41z"/>
									<path id="XMLID_3851_" style="fill:#9A4A4D;" d="M329.977,193.135l2.933,1.1c-0.29,0.841-1.182,1.276-1.992,0.972
										C330.108,194.903,329.687,193.975,329.977,193.135z"/>
									<path id="XMLID_3850_" style="fill:#263238;" d="M341.328,180.48l-2.506-1.93c0.511-0.718,1.486-0.867,2.178-0.334
										C341.692,178.748,341.839,179.762,341.328,180.48z"/>
									<path id="XMLID_3849_" style="fill:#263238;" d="M340.556,183.895c0,0.737-0.575,1.333-1.285,1.331
										c-0.709-0.002-1.284-0.601-1.284-1.338c0-0.737,0.575-1.333,1.284-1.331C339.981,182.558,340.556,183.158,340.556,183.895z
										"/>
									<polygon id="XMLID_3848_" style="fill:#9A4A4D;" points="334.011,182.676 334.433,190.402 338.467,189.027 									"/>
								</g>
							</g>
							<path id="XMLID_3845_" style="fill:#263238;" d="M317.622,386.832v-1.216c0.813,0.354,2.703,7.564,6.075,10.64
								c2.681,2.445,6.338,5.27,7.269,7.996c0.967,2.835-5.093,4.401-7.598,3.957c-2.91-0.515-7.955-2.565-9.221-4.464
								c-1.266-1.899-1.859-4.702-2.888-6.094c-1.029-1.392-3.401-2.947-3.957-4.558c-0.306-0.885,0.057-2.824,0.487-4.462
								c0.394-1.503,0.821-3.155,1.334-3.014c0.002,0.183,0,0.927,0,0.927c0.617,0.684,2.324,1.362,4.25,1.436
								C314.615,388.027,317.632,387.781,317.622,386.832z"/>
							<path id="XMLID_3844_" style="fill:#263238;" d="M341.227,377.813c0.441,0.015,0.801,0.638,1.774,1.692
								c1.177,1.273,3.101,2.647,5,3.598c3.183,1.593,9.37,4.044,12.171,5.306c1.75,0.788,1.668,2.901-0.141,4.104
								c-1.809,1.203-6.174,2.069-11.417,0.897c-2.856-0.639-6.574-3.277-8.927-3.134c-2.353,0.142-6.756,0.108-8.493-1.089
								c-1.737-1.197-1.042-3.754-0.551-5.951c0.536-2.398,1.206-6.137,2-5.974v0.827c1.022,1.547,6.295,2.177,8.54,1.038
								L341.227,377.813z"/>
							<path id="XMLID_3843_" style="fill:#263238;" d="M327.185,287.289c0,0,6.793-1.914,11.836-6.786c0,0-2.284,4.276-9.075,8.255
								l0.905,30.044L327.185,287.289z"/>
						</g>
					</g>
				</g>
			</g>
			<g id="XMLID_3839_">
				<path id="XMLID_3840_" style="fill:#B16668;" d="M291.663,250.369c5.451-31.899,11.035-41.596,20.166-41.93
					c2.822,3.052,2.564,12.707-1.357,18.754c0,0-8.404,20.27-9.552,27.385c-1.009,6.251-2.113,14.106-1.755,19.418
					c0.064,0.941,0.496,1.817,1.169,2.478c1.806,1.773,1.887,3.269,3.1,5.268c0.95,1.566,1.931,2.12,1.677,2.495
					c-0.325,0.483-1.396,1.144-2.808,0.348c-0.71-0.4-1.183-0.888-2.237-1.943c0,0,0.396,2.478,1.976,5.613
					c2.142,4.249,1.783,6.489-4.158,5.232c-3.723-0.787-6.182-3.733-7.171-12.539c-0.285-2.537-0.724-6.539-0.582-9.771
					C290.499,262.762,290.804,255.391,291.663,250.369z"/>
			</g>
			<g id="XMLID_3835_">
				<g id="XMLID_3836_">
					<g id="XMLID_3837_">
						<path id="XMLID_3838_" style="fill:#455A64;" d="M314.058,207.141c-2.781,0.505-9.913,0.761-13.564,8.126
							c-2.406,4.853-4.82,12.449-7.413,21.55c0,0,5.353,5.543,13.241,4.75l4.414-12.741
							C314.929,223.409,315.966,211.22,314.058,207.141z"/>
					</g>
				</g>
			</g>
		</g>
	</g>
</g>
<g id="Character_3">
	<g id="XMLID_3934_">
		<g id="Character_2_">
			<g id="XMLID_3792_">
				<path id="XMLID_3763_" style="fill:#FFA8A7;" d="M263.436,205.043c-7.766-31.291-16.646-38.556-8.349-42.772
					c8.534-0.833,12.93,4.207,14.417,13.193c0.727,4.394,2.306,22.44,4.289,29.508c1.742,6.21,4.084,13.943,6.688,18.7
					c0.461,0.843,1.236,1.467,2.141,1.79c2.428,0.866,3.143,2.214,5.12,3.543c1.548,1.041,2.692,1.133,2.618,1.589
					c-0.094,0.585-0.801,1.655-2.446,1.523c-0.828-0.066-1.474-0.315-2.899-0.839c0,0,1.426,2.121,4.229,4.342
					c3.799,3.011,4.425,5.235-1.604,6.616c-3.778,0.866-7.313-0.805-11.995-8.521c-1.349-2.223-3.468-5.734-4.72-8.783
					C267.664,216.997,264.686,210.08,263.436,205.043z"/>
				<g id="XMLID_3761_">
					<path id="XMLID_3798_" style="fill:#263238;" d="M236.63,344.55v-1.214c0.479,1.424,2.7,7.555,6.068,10.628
						c2.678,2.443,6.331,5.264,7.26,7.987c0.966,2.832-5.084,3.784-7.586,3.341c-2.907-0.515-6.668-2.164-8.715-4.68
						c-1.439-1.768-2.356-3.865-3.384-5.255c-1.028-1.391-3.397-2.943-3.953-4.553c-0.305-0.884,0.057-2.821,0.486-4.457
						c0.394-1.501,0.82-3.152,1.333-3.011c0.001,0.183,0,0.926,0,0.926c0.616,0.683,2.322,1.361,4.245,1.435
						C233.627,345.743,236.641,345.497,236.63,344.55z"/>
					<path id="XMLID_3797_" style="fill:#FFA8A7;" d="M245.123,356.112c-0.831-0.741-1.666-1.465-2.424-2.157
						c-2.354-2.147-4.147-5.788-5.178-8.272c-0.588-1.418-0.891-2.932-0.891-4.468v-4.839h-8.49v7.876v0v0.001v0.21l0.043,0.022
						c0.408,1.764,4.305,6.457,6.518,9.517c1.484,2.052,4.303,4.661,7.672,5.111C245.566,359.54,247.198,358.533,245.123,356.112z"
						/>
				</g>
				<g id="XMLID_3762_">
					<path id="XMLID_3796_" style="fill:#263238;" d="M269.746,336.18v-1.214c0.479,1.424,2.7,7.555,6.068,10.628
						c2.678,2.443,6.331,5.264,7.26,7.987c0.967,2.832-5.084,3.784-7.586,3.341c-2.907-0.515-6.668-2.164-8.715-4.68
						c-1.44-1.768-2.356-3.865-3.384-5.255c-1.028-1.391-3.397-2.943-3.953-4.553c-0.305-0.884,0.057-2.821,0.486-4.457
						c0.394-1.501,0.82-3.152,1.333-3.011c0.001,0.183,0,0.926,0,0.926c0.616,0.683,2.322,1.361,4.245,1.435
						C266.743,337.374,269.756,337.128,269.746,336.18z"/>
					<path id="XMLID_3795_" style="fill:#FFA8A7;" d="M278.239,347.743c-0.831-0.741-1.666-1.466-2.424-2.157
						c-2.353-2.147-4.147-5.788-5.178-8.272c-0.588-1.418-0.891-2.932-0.891-4.468v-4.839h-8.49v7.876v0v0.001v0.21l0.043,0.022
						c0.409,1.764,4.305,6.457,6.518,9.517c1.483,2.052,4.303,4.661,7.672,5.111C278.682,351.17,280.314,350.164,278.239,347.743z"
						/>
				</g>
				<g id="XMLID_3764_">
					<path id="XMLID_3794_" style="fill:#27DEBF;" d="M229.83,212.606c-6.582,14.376,0.237,65.016,0.237,65.016
						c-0.198,2.333-2.865,6.923-3.859,17.191c-1.174,12.132,1.842,42.593,1.842,42.593s3.931,2.571,8.58,0.341
						c0,0,8.091-45.878,9.613-57.94c1.328-10.527,3.877-33.673,3.877-33.673l7.243,33.616c0,0-1.859,5.897-2.294,10.39
						c-0.687,7.095,6.187,40.129,6.187,40.129s2.929,1.075,8.49,0.256c0,0,2.432-43.837,3.072-52.384
						c1.076-14.354-2.736-59.141-5.369-67.637L229.83,212.606z"/>
					<path id="XMLID_3791_" style="opacity:0.1;" d="M250.12,246.134l2.137-13.352c0,0,9.04-1.873,13.14-5.727
						c0,0-4.302,5.351-10.691,7.103l-2.4,10.28l4.196,31.126L250.12,246.134z"/>
				</g>
				<g id="XMLID_3598_">
					<path id="XMLID_3790_" style="fill:#F5F5F5;" d="M241.44,162.663L241.44,162.663c-8.438,0.581-9.03,4.656-11.142,9.113
						c-1.607,3.393-1.626,7.328-0.399,10.876l5.88,17.011c0,0-3.83,6.427-5.95,12.943c14.757,8.236,33.183,3.907,37.62-2.104
						c0.188-1.275-0.953-11.241-1.655-17.752c2.599-6.52,3.285-10.652,2.188-14.962c-2.035-8-9.938-15.794-13.434-15.51
						L241.44,162.663z"/>
					<g id="XMLID_3767_">
						<g id="XMLID_3786_">
							<path id="XMLID_3789_" style="fill:#263238;" d="M251.473,154.915l-6.224,0.027c-8.669,0.037-15.726-6.96-15.763-15.629v0
								c-0.044-10.387,8.341-18.844,18.728-18.888l0,0c10.387-0.044,18.844,8.341,18.888,18.728l0,0
								C267.139,147.82,260.142,154.878,251.473,154.915z"/>
							<path id="XMLID_3788_" style="fill:#263238;" d="M243.341,116.003c2.686,3.954-0.163,6.656-4.118,9.342
								c-3.954,2.686-7.516,4.339-10.202,0.384c-2.686-3.954-1.208-8.367,2.746-11.053
								C235.722,111.991,240.656,112.049,243.341,116.003z"/>
							<path id="XMLID_3787_" style="fill:#263238;" d="M233.662,128.236l-3.98,2.943c-0.866-1.093-0.676-2.639,0.423-3.451
								C231.204,126.915,232.797,127.143,233.662,128.236z"/>
						</g>
						<g id="XMLID_3768_">
							<g id="XMLID_3784_">
								<path id="XMLID_3785_" style="fill:#FFA8A7;" d="M259.841,128.799c1.991,1.165,4.468,6.152,4.271,16.628
									c-0.168,8.879-3.036,11.084-4.478,11.722c-1.442,0.638-4.23,0.266-6.942-0.174l0.154,5.392c0,0,4.569,3.738,4.343,6.182
									c-0.225,2.444-6.331,3.574-9.844,1.202c-3.06-2.065-5.693-4.783-6.323-5.451c-0.095-0.101-0.143-0.229-0.143-0.367
									l-0.01-13.445c0,0-1.588,1.555-4.302-0.797c-2.24-1.942-3.006-5.229-1.274-7.002c1.732-1.773,4.948-1.306,6.192,1.206
									c0,0,4.321,0.14,10.061-3.046C257.285,137.666,259.473,132.243,259.841,128.799z"/>
							</g>
							<g id="XMLID_3779_">
								<path id="XMLID_3781_" style="fill:#263238;" d="M254.189,143.239c0.035,0.639-0.436,1.184-1.051,1.216
									c-0.616,0.032-1.143-0.461-1.178-1.101c-0.035-0.64,0.436-1.184,1.052-1.215C253.628,142.107,254.155,142.6,254.189,143.239
									z"/>
							</g>
							<g id="XMLID_3777_">
								<path id="XMLID_3778_" style="fill:#F28F8F;" d="M254.52,150.763l2.596,0.816c-0.212,0.743-0.965,1.163-1.682,0.937
									C254.717,152.291,254.308,151.507,254.52,150.763z"/>
							</g>
							<g id="XMLID_3775_">
								<path id="XMLID_3776_" style="fill:#263238;" d="M263.328,139.772l-2.265-1.556c0.409-0.647,1.249-0.823,1.874-0.393
									C263.563,138.253,263.738,139.125,263.328,139.772z"/>
							</g>
							<g id="XMLID_3773_">
								<path id="XMLID_3774_" style="fill:#263238;" d="M262.819,142.395c0.035,0.64-0.436,1.184-1.052,1.216
									c-0.616,0.032-1.143-0.461-1.178-1.1c-0.035-0.64,0.436-1.184,1.051-1.216C262.257,141.263,262.784,141.755,262.819,142.395
									z"/>
							</g>
							<g id="XMLID_3771_">
								<polygon id="XMLID_3772_" style="fill:#F28F8F;" points="257.792,141.223 257.756,148.498 261.288,147.387 								"/>
							</g>
							<g id="XMLID_3769_">
								<path id="XMLID_3770_" style="fill:#F28F8F;" d="M252.691,156.975c-2.857-0.362-8.737-2.025-9.663-4.343
									c0,0,0.311,1.458,2.072,2.955c1.761,1.496,7.642,3.186,7.642,3.186L252.691,156.975z"/>
							</g>
						</g>
					</g>
					<path id="XMLID_3760_" style="fill:#E0E0E0;" d="M245.214,214.202c-4.847-1.148-7.922-6.051-6.642-10.865
						c0.049-0.183,0.099-0.34,0.151-0.464c0.949-2.281,2.988-1.981,2.988-1.981l0,0c-1.913-1.268-2.814-3.44-3.262-5.691
						l-2.221-10.469c0,0-0.399-2.356,0.456-5.171l-5.931-6.86c0,0-0.426,0.296-1.096,0.762c-0.924,2.971-0.786,6.214,0.243,9.189
						l5.88,17.011c0,0-3.632,5.88-5.95,12.943c10.875,6.07,23.737,5.312,31.53,2.089
						C255.204,215.65,249.501,215.217,245.214,214.202z"/>
				</g>
			</g>
		</g>
		<g id="XMLID_3917_">
			<g id="XMLID_3799_">
				<path id="XMLID_3820_" style="fill:#37474F;" d="M241.989,239.301l-21.449-12.264c0,0-10.44,14.345-3.333,18.395
					c7.107,4.049,14.161,8.176,21.241,12.264C246.466,254.559,241.989,239.301,241.989,239.301z"/>
				<polygon id="XMLID_3817_" style="fill:#27DEBF;" points="238.449,241.345 221.655,231.63 221.655,232.558 238.449,242.367 				
					"/>
				<path id="XMLID_3814_" style="fill:#455A64;" d="M241.989,239.301c-1.383,4.504-5.531,17.246-3.54,18.395
					s8.14-2.807,8.015-5.192C246.112,245.769,241.989,239.301,241.989,239.301z"/>
			</g>
			<path id="XMLID_3765_" style="fill:#263238;" d="M236.066,162.621c0,0,2.668-0.484,4.232,2.488
				c3.431,6.519,1.073,73.838,1.073,73.838l-2.32-1.327c0,0,0.806-21.705,0.729-41.46c-0.056-14.508-0.597-28.213-1.223-29.703
				c-1.323-3.153-4.214-2.671-4.214-2.671C234.685,163.172,235.278,162.801,236.066,162.621z"/>
			<g id="XMLID_3758_">
				<path id="XMLID_3759_" style="fill:#FFA8A7;" d="M214.726,205.009c6.561-26.818,11.658-38.33,18.832-41.007
					c2.328-0.869,4.832,0.566,5.212,3.022c0.682,4.408-0.554,10.942-3.738,15.357c0,0-9.573,20.198-11.101,27.378
					c-1.337,6.283-2.85,14.182-2.767,19.603c0.015,0.974,0.394,1.919,1.056,2.634c1.757,1.899,1.762,3.427,2.897,5.526
					c0.887,1.641,1.857,2.254,1.58,2.623c-0.355,0.475-1.478,1.093-2.874,0.212c-0.702-0.443-1.159-0.963-2.178-2.09
					c0,0,0.278,2.541,1.727,5.81c1.965,4.431,1.486,6.692-4.495,5.113c-3.748-0.989-6.101-4.111-6.662-13.119
					c-0.162-2.595-0.406-6.689-0.099-9.97C212.916,217.558,213.493,210.049,214.726,205.009z"/>
			</g>
		</g>
	</g>
</g>
<g id="Character_2">
	<g id="XMLID_2694_">
		<path id="XMLID_447_" style="fill:#FFA8A7;" d="M210.34,166.977c0.598-5.857,0.598-8.338,0.419-9.068
			c-0.818-3.324-3.138-5.986-5.575-10.021c-4.193-6.941-10.503-17.705-13.41-21.845c-2.303-3.28-4.783-5.203-8.57-4.994
			c-2.648,0.147-0.596,10.601,2.006,18.132l13.951,19.247c0.457,0.631,0.667,1.407,0.59,2.182l-1.358,13.719l4.447,5.949
			C202.84,180.278,209.575,174.472,210.34,166.977z"/>
		<path id="XMLID_2296_" style="fill:#F28F8F;" d="M210.421,166.164c-0.199-1.045-0.901-1.897-2.736-1.826
			c-1.821,0.07-3.255,2.428-3.255,2.428l5.16,2.293c0.272-0.682,0.529-1.374,0.75-2.081c0,0,0,0,0,0
			C210.369,166.696,210.395,166.43,210.421,166.164z"/>
		<path id="XMLID_3915_" style="fill:#37474F;" d="M181.67,120.903c0,0,5.727-0.726,8.911,2.732s4.73,6.352,7.812,11.465
			c3.711,6.156,5.317,9.322,5.317,9.322s-5.803,7.746-14.354,6.739L181.67,120.903z"/>
		<g id="Character_Boy_6_">
			<g id="XMLID_3815_">
				<g id="XMLID_3816_">
					
						<ellipse id="XMLID_3914_" transform="matrix(0.7071 -0.7071 0.7071 0.7071 -12.8163 157.0798)" style="fill:#263238;" cx="183.204" cy="94.011" rx="11.848" ry="11.848"/>
					<g id="XMLID_3819_">
						<g id="XMLID_3821_">
							<g id="XMLID_3822_">
								
									<rect id="XMLID_3913_" x="154.832" y="294.484" transform="matrix(-1 -1.224647e-16 1.224647e-16 -1 318.0096 603.254)" style="fill:#FFA8A7;" width="8.346" height="14.287"/>
								<polygon id="XMLID_3912_" style="fill:#FFA8A7;" points="183.767,298.775 192.108,299.062 192.525,283.942 184.185,283.656 
																	"/>
								<path id="XMLID_3911_" style="fill:#EBEBEB;" d="M155.38,181.234c0,7.969-1.031,56.263-1.031,56.263
									c-0.194,2.293-2.344,6.521-1.879,15.329c0.632,11.964,1.666,43.068,1.666,43.068s3.913,3.879,9.438,0
									c0,0,7.556-43.026,9.052-54.883c1.305-10.347,3.519-38.458,3.519-38.458l4.629,39.016c0,0-1.361,7.778-1.66,13.268
									c-0.299,5.49,4.52,33.354,4.52,33.354s4.242,2.932,9.081,0.346c0,0,3.601-42.484,4.461-47.442
									c0.861-4.959-2.764-59.859-2.764-59.859H155.38z"/>
								<path id="XMLID_3910_" style="fill:#27DEBF;" d="M163.398,123.584c-3.636,0.646-6.536,3.401-7.332,7.008
									c-0.395,1.791-0.685,3.926-0.685,6.336v16.352v27.955c5.852,6.367,26.254,9.333,39.034,0c0,0-0.251-39.135-1.208-45.565
									c-1.663-11.17-7.01-15.154-12.38-14.737l-12.882,1.843L163.398,123.584z"/>
								<g id="XMLID_3833_">
									<g id="XMLID_3903_">
										<path id="XMLID_3909_" style="fill:#263238;" d="M162.724,102.434c0,0,1.92,9.02,2.69,10.502
											c0.77,1.482,2.361,1.903,2.361,1.903l-0.134-6.345L162.724,102.434z"/>
										<path id="XMLID_3908_" style="fill:#263238;" d="M165.133,89.513c0,0-2.068-0.354-3.68,1.294
											c-1.58,1.616-0.698,6.674,1.27,11.628l3.616,0.415L165.133,89.513z"/>
										<path id="XMLID_3907_" style="fill:#FFA8A7;" d="M167.425,102.853c-0.725,0.433-1.759-0.96-2.654-1.896
											c-0.894-0.936-3.814-2.214-5.27,0.854c-1.484,3.127,1.286,7.259,3.584,7.981c3.961,1.243,4.555-1.297,4.555-1.297
											l0.302,14.287c0,0,2.593,6.346,9.616,7.297c7.023,0.952,5.577-4.838,3.27-7.675l-0.011-4.348c0,0,3.589,0.545,5.34,0.274
											c2.913-0.45,4.746-2.749,5.629-5.902c1.419-5.064,1.958-9.153,0.754-19.113c-1.32-10.917-14.017-11.03-20.874-6.715
											C164.81,90.916,167.425,102.853,167.425,102.853z"/>
										<path id="XMLID_3906_" style="fill:#263238;" d="M167.425,104.073c-0.365,0.007-1.751-2.294-2.654-3.116
											c-1.251-1.138,0.363-11.444,0.363-11.444s-1.202-2.562,1.207-5.213c1.713-1.886,4.577-2.095,9.466-2.864
											c2.566-0.403,6.454-1.121,9.015-1.598c3.059-0.569,5.591-1.17,7.751,0.706c1.681,1.461,2.404,4.042,1.499,6.077
											c-0.212,0.477-0.519,0.908-0.869,1.297c-0.619,0.688-1.32,1.23-2.201,1.516c0,0-1.334,1.183-5.974,1.748
											c-4.64,0.565-11.867-0.108-12.855-0.244c-1.345-0.184-1.632,1.12-2.358,4.682
											C169.179,98.749,168.65,104.049,167.425,104.073z"/>
										<path id="XMLID_3905_" style="fill:#263238;" d="M165.141,90.314l-4.385-2.354c0.622-1.256,2.108-1.748,3.319-1.098
											C165.286,87.513,165.763,89.058,165.141,90.314z"/>
										<path id="XMLID_3904_" style="fill:#F28F8F;" d="M180.818,118.056c0,0-6.502-1.31-8.775-2.518
											c-1.521-0.809-2.775-2.211-3.142-3.109c0,0,0.426,1.929,1.785,3.667c1.662,2.125,10.132,3.69,10.132,3.69L180.818,118.056
											z"/>
									</g>
									<g id="XMLID_3896_">
										<path id="XMLID_3902_" style="fill:#263238;" d="M179.255,101.227c0,0.748-0.584,1.352-1.303,1.35
											c-0.72-0.002-1.303-0.61-1.303-1.357c0-0.748,0.583-1.352,1.303-1.35C178.672,99.872,179.255,100.479,179.255,101.227z"/>
										<path id="XMLID_3901_" style="fill:#263238;" d="M177.874,96.307l-2.788,1.538c-0.411-0.801-0.12-1.795,0.65-2.219
											C176.505,95.202,177.463,95.507,177.874,96.307z"/>
										<path id="XMLID_3900_" style="fill:#F28F8F;" d="M180.229,110.228l2.975,1.116c-0.294,0.853-1.199,1.294-2.02,0.986
											C180.362,112.022,179.935,111.081,180.229,110.228z"/>
										<path id="XMLID_3899_" style="fill:#263238;" d="M190.875,97.392l-2.542-1.958c0.519-0.728,1.508-0.88,2.209-0.339
											C191.245,95.636,191.393,96.664,190.875,97.392z"/>
										<path id="XMLID_3898_" style="fill:#263238;" d="M190.092,100.856c0,0.748-0.583,1.352-1.303,1.35
											c-0.719-0.002-1.303-0.61-1.303-1.357c0-0.748,0.583-1.352,1.303-1.35C189.509,99.5,190.092,100.108,190.092,100.856z"/>
										<polygon id="XMLID_3897_" style="fill:#F28F8F;" points="183.454,99.62 183.882,107.456 187.973,106.062 										"/>
									</g>
								</g>
								<path id="XMLID_3827_" style="fill:#263238;" d="M163.178,304.651v-1.193c0.799,0.348,2.654,7.426,5.965,10.446
									c2.633,2.401,6.223,5.174,7.137,7.851c0.95,2.784-5.001,4.321-7.46,3.885c-2.858-0.506-7.81-2.518-9.054-4.383
									c-1.243-1.865-1.825-4.617-2.836-5.984c-1.01-1.367-3.339-2.893-3.885-4.475c-0.3-0.869,0.056-2.773,0.478-4.381
									c0.387-1.476,0.806-3.098,1.31-2.96c0.001,0.18,0,0.91,0,0.91c0.606,0.671,2.282,1.338,4.173,1.41
									C160.226,305.824,163.188,305.582,163.178,304.651z"/>
								<path id="XMLID_3824_" style="fill:#263238;" d="M192.196,296.488c0.433,0.015,0.786,0.626,1.742,1.661
									c1.155,1.25,3.045,2.599,4.909,3.532c3.125,1.564,9.201,3.971,11.95,5.209c1.718,0.774,1.637,2.849-0.139,4.029
									c-1.776,1.181-6.062,2.032-11.21,0.88c-2.804-0.627-6.454-3.217-8.765-3.077c-2.31,0.14-6.634,0.107-8.339-1.069
									c-1.706-1.176-1.023-3.686-0.541-5.844c0.526-2.354,1.279-5.957,2.058-5.796l-0.025,0.741
									c1.003,1.519,6.111,2.14,8.316,1.021L192.196,296.488z"/>
							</g>
						</g>
					</g>
					<path id="XMLID_3818_" style="fill:#E0E0E0;" d="M176.146,202.552c0,0,6.67-1.879,11.621-6.663c0,0-2.242,4.199-8.911,8.106
						l1.919,37.573L176.146,202.552z"/>
				</g>
			</g>
		</g>
		<g id="XMLID_2695_">
			<path id="XMLID_3793_" style="fill:#FFA8A7;" d="M142.456,193.782c0.369,3.618,0.785,8.501,1.504,11.278
				c2.498,9.64,5.702,12.528,9.969,12.813c6.81,0.455,6.854-2.094,3.796-6.482c-2.256-3.238-3.039-6.268-3.039-6.268
				c1.34,1.006,2.417,1.775,3.271,2.108c1.697,0.661,2.783-0.244,3.069-0.833c0.222-0.458-0.957-0.919-2.262-2.51
				c-1.666-2.033-2.519-3.65-4.809-5.335c-0.854-0.628-1.12-1.785-1.38-2.813c-0.346-1.371-0.584-23.23,0.65-27.756l5.858-21.022
				c4.764-3.271,9.84-19.451,2.596-22.891c-6.802,0.765-11.758,9.657-19.171,37.117
				C141.197,166.051,141.694,186.304,142.456,193.782z"/>
			<path id="XMLID_3766_" style="fill:#37474F;" d="M163.179,123.671c0,0,2.75,2.019,2.943,6.6
				c0.193,4.581-1.956,11.175-3.256,15.308c-1.3,4.133-4.002,11.606-4.002,11.606s-11.191-1.283-13.74-7.852
				c0,0,5.245-16.962,10.287-22.483C158.864,123.069,163.179,123.671,163.179,123.671z"/>
		</g>
		<g id="XMLID_442_">
			<path id="XMLID_2294_" style="fill:#455A64;" d="M208.956,159.788l-0.883-0.761l-0.001,0.011c-0.199-0.16-0.509-0.21-0.908-0.102
				l-9.568,2.602c-0.887,0.241-1.849,1.141-2.15,2.009l-6.886,19.866c-0.16,0.461-0.096,0.815,0.127,1.015l-0.008,0.002l0.911,0.785
				l-0.041-0.654c0.025-0.006,0.046-0.006,0.071-0.013l9.568-2.602c0.887-0.241,1.85-1.141,2.15-2.009
				c1.352-3.905,5.534-15.962,6.886-19.866c0.043-0.125,0.066-0.239,0.078-0.348L208.956,159.788z"/>
			<path id="XMLID_443_" style="fill:#263238;" d="M189.446,184.176l6.886-19.866c0.301-0.868,1.263-1.768,2.15-2.009l9.568-2.602
				c0.887-0.241,1.362,0.267,1.061,1.135c-1.352,3.904-5.533,15.962-6.886,19.866c-0.301,0.868-1.263,1.768-2.15,2.009l-9.568,2.602
				C189.621,185.553,189.146,185.045,189.446,184.176z"/>
		</g>
		<path id="XMLID_428_" style="fill:#FFA8A7;" d="M206.31,168.839c-0.674,2.024-3.079,3.374-7.031,4.31
			c-3.952,0.936-6.141,5.133-5.503,6.41c0.639,1.277,7.025,2.463,9.579,2.098c2.554-0.365,5.124-4.057,5.897-5.2
			c0.773-1.143,1.674-9.123,0.854-10.217c-0.821-1.095-2.546-0.927-2.546-0.927L206.31,168.839z"/>
	</g>
</g>
<g id="Character_1">
	<g id="XMLID_3935_">
		<g id="XMLID_2762_">
			<path id="XMLID_3497_" style="fill:#27DEBF;" d="M132.934,139.995l-24.597-14.064c0,0-11.972,16.451-3.822,21.095
				c8.151,4.644,16.239,9.376,24.359,14.064C138.068,157.492,132.934,139.995,132.934,139.995z"/>
			<path id="XMLID_2743_" style="opacity:0.2;" d="M132.934,139.995l-24.597-14.064c0,0-11.972,16.451-3.822,21.095
				c8.151,4.644,16.239,9.376,24.359,14.064C138.068,157.492,132.934,139.995,132.934,139.995z"/>
			<polygon id="XMLID_2803_" style="fill:#263238;" points="128.874,142.339 112.636,132.963 112.636,134.027 128.874,143.51 			"/>
			<path id="XMLID_2763_" style="fill:#27DEBF;" d="M132.934,139.995c-1.586,5.165-6.342,19.777-4.059,21.095
				c2.283,1.318,9.334-3.219,9.191-5.954C137.662,147.412,132.934,139.995,132.934,139.995z"/>
		</g>
		<g id="Character_3_">
			<g id="XMLID_3656_">
				<path id="XMLID_3657_" style="fill:#263238;" d="M117.656,90.249h-38.78V52.433c0-9.833,7.971-17.805,17.805-17.805h3.171
					c9.833,0,17.805,7.972,17.805,17.805V90.249z"/>
			</g>
			<path id="XMLID_2758_" style="fill:#B16668;" d="M133.167,121.114c2.326-2.167,1.369-4.679-1.85-11.589
				c-3.219-6.91-10.875-22.895-12.799-26.322c-3.35-5.968-7.276-6.3-13.192-6.282c-2.38,0.007,3.658,6.817,6.371,13.432
				c2.452,5.978,11.978,25.546,11.978,25.546L133.167,121.114z"/>
			<g id="XMLID_3643_">
				<path id="XMLID_3655_" style="fill:#B16668;" d="M95.4,275.949c-0.853-0.761-1.711-1.505-2.489-2.215
					c-2.417-2.205-4.258-5.943-5.316-8.493c-0.604-1.456-0.915-3.011-0.915-4.587v-4.968h-8.717v8.087v0v0.001v0.216l0.044,0.022
					c0.419,1.811,4.42,6.63,6.693,9.772c1.523,2.107,4.418,4.786,7.877,5.248C95.854,279.468,97.53,278.435,95.4,275.949z"/>
				<path id="XMLID_3654_" style="fill:#B16668;" d="M120.585,262.692c0.244-0.144,0.459-0.33,0.626-0.559
					c0.679-0.935,0.141-1.445-0.352-2.186c-0.638-0.96-1.057-2.195-1.497-3.257c-0.404-0.975-0.934-2.765-0.934-2.765
					s0.02-1.301,0.02-1.823v-4.968h-8.717c0,0,0,8.087,0,8.088v0.216l0.044,0.022c0.448,1.934,2.208,3.805,3.364,5.347
					c0.896,1.196,3.199,1.803,4.593,2.102c0.616,0.132,1.252,0.219,1.875,0.124C119.948,262.981,120.287,262.868,120.585,262.692z"
					/>
				<path id="XMLID_3653_" style="fill:#37474F;" d="M79.697,128.602c-6.758,14.76,0.244,66.756,0.244,66.756
					c-0.203,2.395-2.942,7.109-3.962,17.651c-1.206,12.456,1.892,43.733,1.892,43.733s4.036,2.639,8.81,0.35
					c0,0,8.308-47.106,9.87-59.49c1.363-10.808,3.98-34.574,3.98-34.574l5.203,34.558c0,0-1.909,6.055-2.356,10.668
					c-0.706,7.285,6.353,41.203,6.353,41.203s3.008,1.103,8.717,0.262c0,0,2.497-45.01,3.155-53.786
					c1.105-14.738-0.575-60.766-3.278-69.49L79.697,128.602z"/>
				<path id="XMLID_3652_" style="fill:#263238;" d="M100.53,163.027l2.194-13.71c0,0,9.282-1.923,13.492-5.881
					c0,0-4.417,5.494-10.977,7.293l-2.464,10.555l2.206,31.308L100.53,163.027z"/>
				<path id="XMLID_3645_" style="fill:#263238;" d="M86.704,262.459l-0.012-1.258c0.836,0.364,2.791,7.785,6.258,10.947
					c2.756,2.514,6.517,5.418,7.473,8.221c0.995,2.915-5.236,4.524-7.812,4.068c-2.992-0.53-8.178-2.637-9.48-4.59
					c-1.302-1.953-1.911-4.834-2.969-6.266c-1.058-1.431-3.497-3.029-4.068-4.686c-0.314-0.91,0.059-2.903,0.5-4.587
					c0.405-1.545,0.844-3.244,1.372-3.099c0.001,0.188,0,0.953,0,0.953c0.634,0.703,2.39,1.401,4.369,1.477
					C83.613,263.688,86.715,263.434,86.704,262.459z"/>
				<path id="XMLID_3644_" style="fill:#263238;" d="M118.428,253.926c0.454,0.016,0.941,0.703,1.942,1.786
					c1.21,1.309,3.188,2.721,5.14,3.699c3.272,1.638,9.634,4.158,12.513,5.455c1.799,0.81,1.714,2.983-0.145,4.219
					c-1.859,1.236-6.348,2.127-11.738,0.922c-2.936-0.657-6.759-3.369-9.178-3.222c-2.419,0.146-6.946,0.112-8.732-1.119
					c-1.786-1.231-1.071-3.86-0.566-6.119c0.551-2.465,1.24-6.31,2.056-6.142v0.85c1.051,1.591,6.472,2.238,8.78,1.067
					L118.428,253.926z"/>
			</g>
			<g id="XMLID_444_">
				<path id="XMLID_2714_" style="fill:#27DEBF;" d="M91.618,77.323L91.618,77.323c-8.664,0.596-9.272,4.78-11.44,9.357
					c-1.651,3.484-1.107,7.64,0.153,11.283l5.475,17.351c0,0-2.827,6.833-6.109,13.289c15.152,8.457,34.071,4.011,38.627-2.16
					c0.193-1.309-0.979-11.542-1.699-18.227c2.668-6.694,3.373-10.938,2.247-15.363c-2.09-8.214-10.203-16.216-13.793-15.925
					L91.618,77.323z"/>
				<g id="XMLID_446_">
					<path id="XMLID_2708_" style="fill:#263238;" d="M77.938,42.634l2.623,4.215c-1.163,0.778-2.692,0.464-3.417-0.7
						C76.42,44.986,76.775,43.412,77.938,42.634z"/>
					<g id="XMLID_2706_">
						<path id="XMLID_2707_" style="fill:#B16668;" d="M111.286,42.47c2.048,1.21,4.579,6.362,4.33,17.161
							c-0.212,9.153-3.179,11.413-4.668,12.065c-1.49,0.652-4.363,0.255-7.155-0.21v5.493c0,0,3.86,4.483,3.617,7.002
							c-0.243,2.519-5.574,3.114-9.186,0.653c-3.612-2.461-5.928-6.206-5.928-6.206V65.151c0,0-1.886,2.518-4.97,0.47
							c-3.084-2.048-3.201-7.117-1.408-8.937c1.793-1.82,5.658-1.244,6.378,1.271c0,0,4.454,0.163,10.386-3.096
							C108.613,51.6,110.892,46.019,111.286,42.47z"/>
					</g>
					<g id="XMLID_2704_">
						<path id="XMLID_2705_" style="fill:#263238;" d="M104.372,57.332c0.033,0.66-0.455,1.218-1.09,1.249
							c-0.635,0.03-1.176-0.48-1.21-1.14c-0.033-0.66,0.455-1.219,1.09-1.249C103.798,56.162,104.339,56.672,104.372,57.332z"/>
					</g>
					<g id="XMLID_2702_">
						<path id="XMLID_2703_" style="fill:#9A4A4D;" d="M105.705,65.09l2.673,0.853c-0.222,0.765-1,1.194-1.738,0.959
							C105.901,66.666,105.483,65.855,105.705,65.09z"/>
					</g>
					<g id="XMLID_2696_">
						<path id="XMLID_2698_" style="fill:#263238;" d="M113.809,53.798l-2.329-1.614c0.425-0.665,1.291-0.843,1.934-0.397
							C114.058,52.232,114.234,53.133,113.809,53.798z"/>
					</g>
					<g id="XMLID_2424_">
						<path id="XMLID_2425_" style="fill:#263238;" d="M113.272,56.5c0.033,0.659-0.455,1.219-1.09,1.249
							c-0.635,0.03-1.176-0.48-1.21-1.139c-0.033-0.66,0.455-1.219,1.09-1.249C112.698,55.33,113.239,55.84,113.272,56.5z"/>
					</g>
					<g id="XMLID_2407_">
						<polygon id="XMLID_2408_" style="fill:#9A4A4D;" points="107.651,55.84 107.834,62.769 111.48,61.639 						"/>
					</g>
					<g id="XMLID_2293_">
						<path id="XMLID_2330_" style="fill:#9A4A4D;" d="M103.793,71.486c-2.944-0.386-8.999-2.126-9.943-4.52
							c0,0,0.314,1.505,2.123,3.055c1.809,1.55,7.819,3.297,7.819,3.297V71.486z"/>
					</g>
				</g>
				<path id="XMLID_445_" style="opacity:0.1;" d="M95.493,130.241c-4.124-0.976-8.313-5.486-6.418-9.89
					c0.529-1.229,1.47-2.276,2.635-2.933c1.013-0.571,1.81-0.33,2.75,0.293c-1.964-1.303-5.395-7.629-5.855-9.94l-2.339-7.788
					c0,0-0.41-2.42,0.468-5.31l-6.09-7.044c0,0-0.437,0.304-1.125,0.782c-0.949,3.051-0.245,6.496,0.812,9.551l5.475,17.351
					c0,0-2.827,6.833-6.109,13.289c11.166,6.232,24.372,5.454,32.374,2.145C105.751,131.727,99.895,131.283,95.493,130.241z"/>
			</g>
			<g id="XMLID_2802_">
				<path id="XMLID_3658_" style="fill:#B16668;" d="M65.896,118.807c6.561-26.818,11.262-36.287,16.459-39.419
					c1.995-1.202,4.899-1.818,6.356-1.676c0.783,0.738,1.087,2.188,1.229,3.109c0.682,4.408-0.554,10.942-3.738,15.357
					c0,0-9.573,20.198-11.101,27.378c-1.337,6.284-2.85,14.182-2.767,19.603c0.015,0.974,0.395,1.919,1.056,2.634
					c1.757,1.899,1.762,3.427,2.897,5.526c0.887,1.641,1.857,2.254,1.58,2.623c-0.356,0.474-1.478,1.093-2.874,0.212
					c-0.702-0.443-1.159-0.963-2.178-2.09c0,0,0.277,2.541,1.727,5.81c1.965,4.431,1.486,6.692-4.495,5.113
					c-3.748-0.989-6.101-4.111-6.662-13.119c-0.162-2.595-0.407-6.689-0.099-9.97C64.086,131.356,64.663,123.847,65.896,118.807z"/>
			</g>
		</g>
		<path id="XMLID_2753_" style="fill:#B16668;" d="M103.199,116.659c1.797,0.518,3.547,0.292,6.019,1.223
			c2.177,0.82,3.622,1.281,5.781,1.465c2.159,0.184,4.281-2.095,9.816-5.234c5.241-2.973,11.718,3.174,8.352,7.002
			c-0.561,0.637-2.322,1.958-4.09,2.666c-2.507,1.004-4.974,1.529-11.424,3.484c-1.098,0.333-2.119,0.858-3.146,1.362
			c-1.284,0.631-2.505,0.989-3.849,1.429c-2.987,0.98-6.229,1.181-9.311,0.561c-1.852-0.373-3.792-1.135-5.069-2.582
			c-1.15-1.303-2.193-3.774-1.795-5.511c0.119-0.519,0.367-1.026,0.786-1.354c1-0.785,2.55-0.285,3.679-0.111
			c1.367,0.21,2.645,0.481,4.044,0.422c2.155-0.091,3.664-0.453,3.365-0.766c-0.298-0.312-1.561-0.171-3.266-0.963
			c-1.629-0.757-2.777-2.471-2.28-3.351C101.309,115.518,101.403,116.141,103.199,116.659z"/>
		<path id="XMLID_2742_" style="fill:#263238;" d="M123.14,114.998c0,0,2.942-0.49,4.853,2.854s2.912,20.971,2.912,20.971
			l-2.03-1.172c0,0-0.689-14.129-2.383-18.165c-1.517-3.616-5.328-3.151-5.328-3.151
			C121.555,115.629,122.235,115.205,123.14,114.998z"/>
	</g>
</g>
<g id="Poles">
	<g id="XMLID_449_">
		<g id="XMLID_3966_">
			<path id="XMLID_3951_" style="fill:#37474F;" d="M55.38,162.359h-8.737v136.299l0,0c0,0.646,0.426,1.291,1.279,1.783
				c1.706,0.985,4.472,0.985,6.178,0c0.853-0.493,1.28-1.138,1.28-1.783l0,0V162.359z"/>
			<path id="XMLID_3950_" style="fill:#455A64;" d="M47.922,164.142c1.706,0.985,4.472,0.985,6.178,0
				c1.706-0.985,1.706-2.582,0-3.567c-1.706-0.985-4.472-0.985-6.178,0C46.216,161.561,46.216,163.157,47.922,164.142z"/>
		</g>
		<g id="XMLID_2332_">
			<path id="XMLID_2331_" style="fill:#27DEBF;" d="M53.638,179.214c31.055,29.459,68.607,50.508,111.644,64.458v-8.649
				c-43.037-13.95-80.589-34.999-111.644-64.458V179.214z"/>
			<path id="XMLID_440_" style="opacity:0.7;fill:#FFFFFF;" d="M53.638,179.214c31.055,29.459,68.607,50.508,111.644,64.458v-8.649
				c-43.037-13.95-80.589-34.999-111.644-64.458V179.214z"/>
		</g>
		<g id="XMLID_441_">
			<path id="XMLID_450_" style="fill:#37474F;" d="M167.172,227.246h-8.737v136.299l0,0c0,0.646,0.426,1.291,1.279,1.783
				c1.706,0.985,4.472,0.985,6.178,0c0.853-0.492,1.279-1.138,1.279-1.783l0,0V227.246z"/>
			<path id="XMLID_448_" style="fill:#455A64;" d="M159.715,229.029c1.706,0.985,4.472,0.985,6.178,0
				c1.706-0.985,1.706-2.582,0-3.567c-1.706-0.985-4.472-0.985-6.178,0C158.009,226.447,158.009,228.044,159.715,229.029z"/>
		</g>
		<g id="XMLID_2335_">
			<path id="XMLID_2339_" style="fill:#27DEBF;" d="M164.908,243.292c31.055,29.459,68.607,50.508,111.644,64.458v-8.649
				c-43.037-13.95-80.589-34.999-111.644-64.458V243.292z"/>
			<path id="XMLID_2338_" style="opacity:0.7;fill:#FFFFFF;" d="M164.908,243.292c31.055,29.459,68.607,50.508,111.644,64.458
				v-8.649c-43.037-13.95-80.589-34.999-111.644-64.458V243.292z"/>
		</g>
		<g id="XMLID_451_">
			<path id="XMLID_2295_" style="fill:#37474F;" d="M278.965,292.133h-8.737v136.299l0,0c0,0.645,0.427,1.291,1.28,1.783
				c1.706,0.985,4.472,0.985,6.178,0c0.853-0.492,1.28-1.138,1.28-1.783l0,0V292.133z"/>
			<path id="XMLID_452_" style="fill:#455A64;" d="M271.508,293.916c1.706,0.985,4.472,0.985,6.178,0
				c1.706-0.985,1.706-2.582,0-3.567c-1.706-0.985-4.472-0.985-6.178,0C269.802,291.335,269.802,292.931,271.508,293.916z"/>
		</g>
	</g>
</g>
</svg>
